<svg width="1341" height="825" viewBox="0 0 1341 825" fill="none" xmlns="http://www.w3.org/2000/svg">
<path d="M214.241 798.744C213.985 798.744 213.778 798.949 213.778 799.201V816.672C213.778 816.835 213.866 816.986 214.009 817.068L223.007 822.195C223.147 822.275 223.319 822.277 223.461 822.2L232.982 817.046C233.13 816.966 233.222 816.812 233.222 816.645V799.201C233.222 798.949 233.015 798.744 232.759 798.744H214.241ZM211 799.201C211 797.433 212.451 796 214.241 796H232.759C234.549 796 236 797.433 236 799.201V816.645C236 817.814 235.355 818.891 234.317 819.453L224.796 824.606C223.803 825.143 222.599 825.13 221.619 824.572L212.622 819.445C211.618 818.873 211 817.816 211 816.672V799.201ZM217.944 803.775C217.944 803.017 218.566 802.403 219.333 802.403H227.88C228.647 802.403 229.269 803.017 229.269 803.775C229.269 804.532 228.647 805.147 227.88 805.147H220.722V808.278H227.88C228.647 808.278 229.269 808.892 229.269 809.65V814.927C229.269 815.446 228.972 815.921 228.501 816.154L224.228 818.264C223.837 818.458 223.377 818.458 222.986 818.264L218.712 816.154C218.242 815.921 217.944 815.446 217.944 814.927V813.871C217.944 813.113 218.566 812.499 219.333 812.499C220.1 812.499 220.722 813.113 220.722 813.871V814.079L223.607 815.503L226.491 814.079V811.022H219.333C218.566 811.022 217.944 810.407 217.944 809.65V803.775Z" fill="#F5F5F5"/>
<path fill-rule="evenodd" clip-rule="evenodd" d="M1326.77 436.883C1326.36 438.211 1325.52 441.117 1325.05 443.981C1326.27 444.177 1327.46 444.302 1328.5 444.302C1329.54 444.302 1330.73 444.177 1331.95 443.981C1331.48 441.117 1330.64 438.211 1330.23 436.883C1329.67 436.792 1329.09 436.744 1328.5 436.744C1327.91 436.744 1327.33 436.792 1326.77 436.883ZM1332.2 437.399C1332.65 438.95 1333.27 441.309 1333.66 443.664C1335.33 443.319 1336.91 442.898 1338.06 442.568C1336.83 440.19 1334.74 438.33 1332.2 437.399ZM1338.74 444.188C1337.52 444.541 1335.77 445.015 1333.9 445.395C1333.98 446.118 1334.02 446.829 1334.02 447.5C1334.02 448.48 1333.93 449.546 1333.77 450.618C1336.01 450.151 1338.06 449.554 1339.12 449.231C1339.21 448.668 1339.26 448.09 1339.26 447.5C1339.26 446.343 1339.07 445.231 1338.74 444.188ZM1338.6 451.204C1337.3 451.581 1335.42 452.08 1333.46 452.459C1333.08 454.421 1332.58 456.296 1332.2 457.601C1335.16 456.515 1337.52 454.164 1338.6 451.204ZM1330.23 458.117C1330.55 457.063 1331.15 455.01 1331.62 452.772C1330.55 452.925 1329.48 453.023 1328.5 453.023C1327.52 453.023 1326.45 452.925 1325.38 452.772C1325.85 455.01 1326.45 457.063 1326.77 458.117C1327.33 458.208 1327.91 458.256 1328.5 458.256C1329.09 458.256 1329.67 458.208 1330.23 458.117ZM1324.8 457.601C1324.42 456.296 1323.92 454.421 1323.54 452.459C1321.58 452.08 1319.7 451.581 1318.4 451.204C1319.48 454.164 1321.84 456.515 1324.8 457.601ZM1317.88 449.231C1318.94 449.554 1320.99 450.151 1323.23 450.618C1323.07 449.546 1322.98 448.48 1322.98 447.5C1322.98 446.829 1323.02 446.118 1323.1 445.395C1321.23 445.015 1319.48 444.541 1318.26 444.188C1317.93 445.231 1317.74 446.343 1317.74 447.5C1317.74 448.09 1317.79 448.668 1317.88 449.231ZM1318.94 442.568C1320.09 442.898 1321.67 443.319 1323.34 443.664C1323.73 441.309 1324.35 438.95 1324.8 437.399C1322.26 438.33 1320.17 440.19 1318.94 442.568ZM1324.82 445.71C1324.76 446.338 1324.72 446.941 1324.72 447.5C1324.72 448.544 1324.85 449.736 1325.04 450.956C1326.26 451.153 1327.46 451.279 1328.5 451.279C1329.54 451.279 1330.74 451.153 1331.96 450.956C1332.15 449.736 1332.28 448.544 1332.28 447.5C1332.28 446.941 1332.24 446.338 1332.18 445.71C1330.92 445.911 1329.65 446.047 1328.5 446.047C1327.35 446.047 1326.08 445.911 1324.82 445.71ZM1325.91 435.268C1326.75 435.092 1327.61 435 1328.5 435C1329.39 435 1330.25 435.092 1331.09 435.268C1335.18 436.129 1338.53 438.99 1340.08 442.78C1340.67 444.237 1341 445.831 1341 447.5C1341 448.386 1340.91 449.251 1340.73 450.086C1339.72 454.915 1335.92 458.716 1331.09 459.732C1330.25 459.908 1329.39 460 1328.5 460C1327.61 460 1326.75 459.908 1325.91 459.732C1321.08 458.716 1317.28 454.915 1316.27 450.086C1316.09 449.251 1316 448.386 1316 447.5C1316 445.83 1316.33 444.235 1316.92 442.776C1318.47 438.988 1321.82 436.129 1325.91 435.268Z" fill="#F5F5F5"/>
<path fill-rule="evenodd" clip-rule="evenodd" d="M5.11385 8.52126C5.11385 8.52126 6.23332 8.97177 6.19363 10.0905C6.15449 11.2097 2.5726 11.6955 2.5726 16.1122C2.5726 20.5289 7.51808 24 13.0208 24C18.5231 24 26 20.7802 26 14.3221C26 3.47928 25.1774 10.9926 16.6071 10.9926C13.7608 10.9926 13.253 10.0226 13.7026 9.46951C15.8285 6.85815 16.6071 0 9.6684 0C5.14103 0.0939026 4.04766 3.77022 4.05472 4.66094C4.05907 5.28677 3.40011 5.49846 0.08138 5.37091C-0.75374 8.42084 5.11385 8.52126 5.11385 8.52126ZM7.16359 2.8947C7.76383 2.8947 8.25098 3.38158 8.25098 3.98028C8.25098 4.57952 7.76383 5.06586 7.16359 5.06586C6.56389 5.06586 6.07619 4.57952 6.07619 3.98028C6.07619 3.38158 6.56389 2.8947 7.16359 2.8947Z" fill="#F5F5F5"/>
</svg>
