<svg width="1849" height="702" viewBox="0 0 1849 702" fill="none" xmlns="http://www.w3.org/2000/svg">
<path d="M1828.98 677.555C1828.75 677.555 1828.56 677.745 1828.56 677.981V694.246C1828.56 694.398 1828.64 694.539 1828.77 694.615L1837.05 699.388C1837.18 699.463 1837.33 699.464 1837.46 699.393L1846.22 694.595C1846.36 694.52 1846.44 694.377 1846.44 694.221V677.981C1846.44 677.745 1846.25 677.555 1846.02 677.555H1828.98ZM1826 677.981C1826 676.334 1827.33 675 1828.98 675H1846.02C1847.67 675 1849 676.334 1849 677.981V694.221C1849 695.31 1848.41 696.312 1847.45 696.835L1838.69 701.633C1837.78 702.133 1836.67 702.121 1835.77 701.601L1827.49 696.828C1826.57 696.296 1826 695.312 1826 694.246V677.981ZM1832.39 682.238C1832.39 681.533 1832.96 680.961 1833.67 680.961H1841.53C1842.24 680.961 1842.81 681.533 1842.81 682.238V692.621C1842.81 693.105 1842.53 693.547 1842.1 693.764L1838.17 695.729C1837.81 695.909 1837.39 695.909 1837.03 695.729L1833.1 693.764C1832.66 693.547 1832.39 693.105 1832.39 692.621V691.639C1832.39 690.933 1832.96 690.361 1833.67 690.361C1834.37 690.361 1834.94 690.933 1834.94 691.639V691.832L1837.6 693.158L1840.25 691.832V688.986H1835.8C1835.09 688.986 1834.52 688.414 1834.52 687.708C1834.52 687.003 1835.09 686.431 1835.8 686.431H1840.25V683.516H1833.67C1832.96 683.516 1832.39 682.944 1832.39 682.238Z" fill="#F5F5F5"/>
<path d="M0 444.734C0 443.224 1.22422 442 2.73438 442H22.2656C23.7758 442 25 443.224 25 444.734V447.859C25 448.507 24.4753 449.031 23.8281 449.031C23.1809 449.031 22.6562 448.507 22.6562 447.859V444.734C22.6562 444.519 22.4814 444.344 22.2656 444.344H2.73438C2.51864 444.344 2.34375 444.519 2.34375 444.734V464.266C2.34375 464.481 2.51864 464.656 2.73438 464.656H23.8281C24.4753 464.656 25 465.181 25 465.828C25 466.475 24.4753 467 23.8281 467H2.73438C1.22422 467 0 465.776 0 464.266V444.734ZM12.8906 450.984C13.5378 450.984 14.0625 451.509 14.0625 452.156V458.406C14.0625 459.976 13.6312 461.154 12.7424 461.894C11.8941 462.601 10.8654 462.703 10.1562 462.703C9.50905 462.703 8.98438 462.178 8.98438 461.531C8.98438 460.884 9.50905 460.359 10.1562 460.359C10.6971 460.359 11.0356 460.266 11.242 460.094C11.4078 459.956 11.7188 459.571 11.7188 458.406V452.156C11.7188 451.509 12.2434 450.984 12.8906 450.984ZM17.6183 452.281C18.2725 451.503 19.298 450.984 20.7031 450.984C22.0077 450.984 22.9919 451.431 23.6553 452.133C24.0998 452.603 24.0789 453.345 23.6086 453.789C23.1383 454.234 22.3966 454.213 21.952 453.742C21.7803 453.561 21.4381 453.328 20.7031 453.328C19.9208 453.328 19.5791 453.591 19.413 453.789C19.2084 454.032 19.1406 454.337 19.1406 454.5C19.1406 454.663 19.2084 454.968 19.413 455.211C19.5791 455.409 19.9208 455.672 20.7031 455.672C20.8214 455.672 20.9356 455.689 21.0431 455.722C22.0792 455.869 22.8623 456.332 23.3973 456.969C24.0131 457.702 24.2188 458.569 24.2188 459.188C24.2188 459.806 24.0131 460.673 23.3973 461.406C22.7431 462.185 21.7177 462.703 20.3125 462.703C19.008 462.703 18.0238 462.257 17.3603 461.555C16.9158 461.085 16.9367 460.343 17.407 459.898C17.8773 459.454 18.6191 459.475 19.0636 459.945C19.2353 460.127 19.5775 460.359 20.3125 460.359C21.0948 460.359 21.4366 460.096 21.6027 459.899C21.8072 459.655 21.875 459.35 21.875 459.188C21.875 459.025 21.8072 458.72 21.6027 458.476C21.4366 458.279 21.0948 458.016 20.3125 458.016C20.1942 458.016 20.08 457.998 19.9725 457.965C18.9364 457.818 18.1533 457.355 17.6183 456.719C17.0025 455.985 16.7969 455.119 16.7969 454.5C16.7969 453.881 17.0025 453.015 17.6183 452.281Z" fill="#F5F5F5"/>
<path d="M1555.3 0.8125H1554.8V1.3125V3.9375V4.4375H1555.3H1578.7H1579.2V3.9375V1.3125V0.8125H1578.7H1555.3ZM1555.3 4.75H1554.8V5.25V19.6875V20.1875H1555.3H1578.7H1579.2V19.6875V5.25V4.75H1578.7H1555.3ZM1554.5 20.5V0.5H1579.5V20.5H1554.5ZM1564.79 17.6006L1561.13 7.43983L1561.41 7.33602L1565.07 17.496L1564.79 17.6006ZM1558.7 10H1558.4V9.6875H1558.7V10ZM1558.7 15.25H1558.4V14.9375H1558.7V15.25ZM1575.6 16.5625H1568.8V16.25H1575.6V16.5625Z" fill="#F5F5F5" stroke="#F5F5F5"/>
<path d="M1103.78 586.75L1098 592.058L1103.78 598.25M1118.22 586.75L1124 592.058L1118.22 598.25M1113.89 581L1108.11 604" stroke="#F5F5F5" stroke-width="2" stroke-linecap="round" stroke-linejoin="round"/>
</svg>
