<svg width="113" height="51" viewBox="0 0 113 51" fill="none" xmlns="http://www.w3.org/2000/svg">
<path d="M0.584 18V0.48H6.56C7.792 0.48 8.864 0.711999 9.776 1.176C10.704 1.64 11.416 2.288 11.912 3.12C12.424 3.952 12.68 4.928 12.68 6.048C12.68 7.152 12.424 8.128 11.912 8.976C11.4 9.808 10.688 10.456 9.776 10.92C8.864 11.384 7.792 11.616 6.56 11.616H4.184V18H0.584ZM4.184 8.376H6.56C7.328 8.376 7.936 8.168 8.384 7.752C8.848 7.32 9.08 6.752 9.08 6.048C9.08 5.344 8.848 4.784 8.384 4.368C7.936 3.936 7.328 3.72 6.56 3.72H4.184V8.376ZM16.3906 18L20.6866 0.48H25.2466L29.5906 18H25.9186L25.0786 14.04H20.9026L20.0626 18H16.3906ZM21.5026 11.16H24.4546L23.6146 6.936C23.5026 6.328 23.3826 5.728 23.2546 5.136C23.1426 4.528 23.0546 4.056 22.9906 3.72C22.9266 4.056 22.8386 4.52 22.7266 5.112C22.6306 5.704 22.5186 6.304 22.3906 6.912L21.5026 11.16ZM39.8772 18.24C38.7092 18.24 37.6852 18.024 36.8052 17.592C35.9252 17.144 35.2372 16.528 34.7412 15.744C34.2612 14.944 34.0212 14.016 34.0212 12.96V5.52C34.0212 4.448 34.2612 3.52 34.7412 2.736C35.2372 1.952 35.9252 1.344 36.8052 0.912C37.6852 0.464 38.7092 0.24 39.8772 0.24C41.0612 0.24 42.0852 0.464 42.9492 0.912C43.8292 1.344 44.5092 1.952 44.9892 2.736C45.4852 3.52 45.7333 4.448 45.7333 5.52H42.1332C42.1332 4.816 41.9332 4.28 41.5332 3.912C41.1492 3.544 40.5972 3.36 39.8772 3.36C39.1572 3.36 38.5972 3.544 38.1972 3.912C37.8132 4.28 37.6212 4.816 37.6212 5.52V12.96C37.6212 13.648 37.8132 14.184 38.1972 14.568C38.5972 14.936 39.1572 15.12 39.8772 15.12C40.5972 15.12 41.1492 14.936 41.5332 14.568C41.9332 14.184 42.1332 13.648 42.1332 12.96V11.448H39.5412V8.4H45.7333V12.96C45.7333 14.016 45.4852 14.944 44.9892 15.744C44.5092 16.528 43.8292 17.144 42.9492 17.592C42.0852 18.024 41.0612 18.24 39.8772 18.24ZM51.2919 18V0.48H62.0919V3.552H54.8199V7.488H61.2519V10.56H54.8199V14.928H62.0919V18H51.2919ZM84.8731 18V14.88H89.2891V3.768L84.8251 7.08V3.36L88.9291 0.48H92.8891V14.88H96.3931V18H84.8731ZM6.32 50.24C5.216 50.24 4.256 50.048 3.44 49.664C2.64 49.28 2.016 48.736 1.568 48.032C1.136 47.312 0.92 46.472 0.92 45.512H2.504C2.504 46.52 2.848 47.328 3.536 47.936C4.224 48.528 5.152 48.824 6.32 48.824C7.44 48.824 8.312 48.544 8.936 47.984C9.576 47.424 9.896 46.648 9.896 45.656C9.896 44.808 9.664 44.072 9.2 43.448C8.736 42.824 8.088 42.392 7.256 42.152L5.096 41.48C3.928 41.128 3.016 40.536 2.36 39.704C1.72 38.856 1.4 37.856 1.4 36.704C1.4 35.792 1.6 35.008 2 34.352C2.4 33.68 2.968 33.16 3.704 32.792C4.456 32.424 5.336 32.24 6.344 32.24C7.848 32.24 9.04 32.656 9.92 33.488C10.8 34.32 11.248 35.448 11.264 36.872H9.68C9.68 35.88 9.376 35.096 8.768 34.52C8.16 33.944 7.344 33.656 6.32 33.656C5.28 33.656 4.464 33.912 3.872 34.424C3.28 34.936 2.984 35.656 2.984 36.584C2.984 37.384 3.208 38.088 3.656 38.696C4.104 39.288 4.728 39.712 5.528 39.968L7.688 40.64C8.872 41.008 9.8 41.632 10.472 42.512C11.144 43.392 11.48 44.416 11.48 45.584C11.48 46.528 11.264 47.352 10.832 48.056C10.416 48.744 9.816 49.28 9.032 49.664C8.264 50.048 7.36 50.24 6.32 50.24ZM22.2226 50V33.92H17.1826V32.48H28.7986V33.92H23.8066V50H22.2226ZM39.8052 50.24C38.3012 50.24 37.1252 49.8 36.2772 48.92C35.4292 48.024 35.0052 46.832 35.0052 45.344V32.48H36.5892V45.344C36.5892 46.432 36.8612 47.288 37.4052 47.912C37.9652 48.52 38.7652 48.824 39.8052 48.824C40.8292 48.824 41.6132 48.52 42.1572 47.912C42.7012 47.288 42.9732 46.432 42.9732 45.344V32.48H44.5572V45.344C44.5572 46.848 44.1332 48.04 43.2852 48.92C42.4532 49.8 41.2932 50.24 39.8052 50.24ZM51.8439 50V32.48H55.9479C57.0679 32.48 58.0279 32.704 58.8279 33.152C59.6439 33.584 60.2759 34.192 60.7239 34.976C61.1879 35.76 61.4199 36.688 61.4199 37.76V44.72C61.4199 45.776 61.1879 46.704 60.7239 47.504C60.2759 48.288 59.6439 48.904 58.8279 49.352C58.0279 49.784 57.0679 50 55.9479 50H51.8439ZM53.4279 48.56H55.9479C57.1319 48.56 58.0759 48.216 58.7799 47.528C59.4839 46.84 59.8359 45.904 59.8359 44.72V37.76C59.8359 36.592 59.4839 35.664 58.7799 34.976C58.0759 34.272 57.1319 33.92 55.9479 33.92H53.4279V48.56ZM68.8985 50V48.56H72.5705V33.92H68.8985V32.456H77.8265V33.92H74.1785V48.56H77.8265V50H68.8985ZM90.1531 50.24C89.1611 50.24 88.2971 50.048 87.5611 49.664C86.8411 49.264 86.2811 48.696 85.8811 47.96C85.4971 47.224 85.3051 46.352 85.3051 45.344V37.136C85.3051 36.128 85.4971 35.264 85.8811 34.544C86.2811 33.808 86.8411 33.24 87.5611 32.84C88.2971 32.44 89.1611 32.24 90.1531 32.24C91.1451 32.24 92.0011 32.44 92.7211 32.84C93.4571 33.24 94.0171 33.808 94.4011 34.544C94.8011 35.264 95.0011 36.128 95.0011 37.136V45.344C95.0011 46.352 94.8011 47.224 94.4011 47.96C94.0171 48.696 93.4571 49.264 92.7211 49.664C92.0011 50.048 91.1451 50.24 90.1531 50.24ZM90.1531 48.824C91.1931 48.824 91.9931 48.52 92.5531 47.912C93.1291 47.304 93.4171 46.448 93.4171 45.344V37.136C93.4171 36.032 93.1291 35.176 92.5531 34.568C91.9771 33.96 91.1771 33.656 90.1531 33.656C89.1291 33.656 88.3291 33.96 87.7531 34.568C87.1771 35.176 86.8891 36.032 86.8891 37.136V45.344C86.8891 46.448 87.1691 47.304 87.7291 47.912C88.3051 48.52 89.1131 48.824 90.1531 48.824ZM107.064 50.24C105.96 50.24 105 50.048 104.184 49.664C103.384 49.28 102.76 48.736 102.312 48.032C101.88 47.312 101.664 46.472 101.664 45.512H103.248C103.248 46.52 103.592 47.328 104.28 47.936C104.968 48.528 105.896 48.824 107.064 48.824C108.184 48.824 109.056 48.544 109.68 47.984C110.32 47.424 110.64 46.648 110.64 45.656C110.64 44.808 110.408 44.072 109.944 43.448C109.48 42.824 108.832 42.392 108 42.152L105.84 41.48C104.672 41.128 103.76 40.536 103.104 39.704C102.464 38.856 102.144 37.856 102.144 36.704C102.144 35.792 102.344 35.008 102.744 34.352C103.144 33.68 103.712 33.16 104.448 32.792C105.2 32.424 106.08 32.24 107.088 32.24C108.592 32.24 109.784 32.656 110.664 33.488C111.544 34.32 111.992 35.448 112.008 36.872H110.424C110.424 35.88 110.12 35.096 109.512 34.52C108.904 33.944 108.088 33.656 107.064 33.656C106.024 33.656 105.208 33.912 104.616 34.424C104.024 34.936 103.728 35.656 103.728 36.584C103.728 37.384 103.952 38.088 104.4 38.696C104.848 39.288 105.472 39.712 106.272 39.968L108.432 40.64C109.616 41.008 110.544 41.632 111.216 42.512C111.888 43.392 112.224 44.416 112.224 45.584C112.224 46.528 112.008 47.352 111.576 48.056C111.16 48.744 110.56 49.28 109.776 49.664C109.008 50.048 108.104 50.24 107.064 50.24Z" fill="#F5F5F5"/>
</svg>
