<svg width="46" height="19" viewBox="0 0 46 19" fill="none" xmlns="http://www.w3.org/2000/svg">
<path d="M0.584 18V0.48H6.56C7.792 0.48 8.864 0.711999 9.776 1.176C10.704 1.64 11.416 2.288 11.912 3.12C12.424 3.952 12.68 4.928 12.68 6.048C12.68 7.152 12.424 8.128 11.912 8.976C11.4 9.808 10.688 10.456 9.776 10.92C8.864 11.384 7.792 11.616 6.56 11.616H4.184V18H0.584ZM4.184 8.376H6.56C7.328 8.376 7.936 8.168 8.384 7.752C8.848 7.32 9.08 6.752 9.08 6.048C9.08 5.344 8.848 4.784 8.384 4.368C7.936 3.936 7.328 3.72 6.56 3.72H4.184V8.376ZM17.7106 18V14.88H22.1266V3.768L17.6626 7.08V3.36L21.7666 0.48H25.7266V14.88H29.2306V18H17.7106ZM39.9012 18.24C38.7972 18.24 37.8372 18.048 37.0212 17.664C36.2212 17.28 35.5972 16.736 35.1492 16.032C34.7172 15.312 34.5012 14.472 34.5012 13.512H36.0852C36.0852 14.52 36.4292 15.328 37.1172 15.936C37.8052 16.528 38.7332 16.824 39.9012 16.824C41.0212 16.824 41.8932 16.544 42.5173 15.984C43.1572 15.424 43.4772 14.648 43.4772 13.656C43.4772 12.808 43.2452 12.072 42.7812 11.448C42.3172 10.824 41.6692 10.392 40.8372 10.152L38.6772 9.48C37.5092 9.128 36.5972 8.536 35.9412 7.704C35.3012 6.856 34.9812 5.856 34.9812 4.704C34.9812 3.792 35.1812 3.008 35.5812 2.352C35.9812 1.68 36.5492 1.16 37.2852 0.792C38.0372 0.424 38.9172 0.24 39.9252 0.24C41.4292 0.24 42.6212 0.656 43.5012 1.488C44.3813 2.32 44.8293 3.448 44.8453 4.872H43.2612C43.2612 3.88 42.9572 3.096 42.3492 2.52C41.7412 1.944 40.9252 1.656 39.9012 1.656C38.8612 1.656 38.0452 1.912 37.4532 2.424C36.8612 2.936 36.5652 3.656 36.5652 4.584C36.5652 5.384 36.7892 6.088 37.2372 6.696C37.6852 7.288 38.3092 7.712 39.1092 7.968L41.2692 8.64C42.4532 9.008 43.3812 9.632 44.0532 10.512C44.7253 11.392 45.0613 12.416 45.0613 13.584C45.0613 14.528 44.8453 15.352 44.4132 16.056C43.9972 16.744 43.3972 17.28 42.6132 17.664C41.8452 18.048 40.9412 18.24 39.9012 18.24Z" fill="#F5F5F5"/>
</svg>
