<svg width="557" height="225" viewBox="0 0 557 225" fill="none" xmlns="http://www.w3.org/2000/svg">
<path d="M0.8 222V2.99999H75.5C90.9 2.99999 104.3 5.89999 115.7 11.7C127.3 17.5 136.2 25.6 142.4 36C148.8 46.4 152 58.6 152 72.6C152 86.4 148.8 98.6 142.4 109.2C136 119.6 127.1 127.7 115.7 133.5C104.3 139.3 90.9 142.2 75.5 142.2H45.8V222H0.8ZM45.8 101.7H75.5C85.1 101.7 92.7 99.1 98.3 93.9C104.1 88.5 107 81.4 107 72.6C107 63.8 104.1 56.8 98.3 51.6C92.7 46.2 85.1 43.5 75.5 43.5H45.8V101.7ZM214.883 222V183H270.083V44.1L214.283 85.5V39L265.583 2.99999H315.083V183H358.883V222H214.883ZM492.266 225C478.466 225 466.466 222.6 456.266 217.8C446.266 213 438.466 206.2 432.866 197.4C427.466 188.4 424.766 177.9 424.766 165.9H444.566C444.566 178.5 448.866 188.6 457.466 196.2C466.066 203.6 477.666 207.3 492.266 207.3C506.266 207.3 517.166 203.8 524.966 196.8C532.966 189.8 536.966 180.1 536.966 167.7C536.966 157.1 534.066 147.9 528.266 140.1C522.466 132.3 514.366 126.9 503.966 123.9L476.966 115.5C462.366 111.1 450.966 103.7 442.766 93.3C434.766 82.7 430.766 70.2 430.766 55.8C430.766 44.4 433.266 34.6 438.266 26.4C443.266 18 450.366 11.5 459.566 6.9C468.966 2.3 479.966 -2.86102e-06 492.566 -2.86102e-06C511.366 -2.86102e-06 526.266 5.2 537.266 15.6C548.266 26 553.866 40.1 554.066 57.9H534.266C534.266 45.5 530.466 35.7 522.866 28.5C515.266 21.3 505.066 17.7 492.266 17.7C479.266 17.7 469.066 20.9 461.666 27.3C454.266 33.7 450.566 42.7 450.566 54.3C450.566 64.3 453.366 73.1 458.966 80.7C464.566 88.1 472.366 93.4 482.366 96.6L509.366 105C524.166 109.6 535.766 117.4 544.166 128.4C552.566 139.4 556.766 152.2 556.766 166.8C556.766 178.6 554.066 188.9 548.666 197.7C543.466 206.3 535.966 213 526.166 217.8C516.566 222.6 505.266 225 492.266 225Z" fill="white"/>
</svg>
